# xmcd
#
# Track frame offsets:
#	150
#	14759
#	28566
#	45132
#	55977
#	71615
#	82900
#	99616
#	111123
#	130978
#	143672
#	156407
#	168859
#	181105
#	194468
#	206035
#	215443
#	228507
#	242717
#	259533
#	273998
#	285246
#	297405
#	309041
#	323271
#
# Disc length: 4462
#
# Revision: 21
# Processed by: cddbd v1.5.1PL0 Copyright (c) Steve Scherf et al.
# Submitted via: AltoMP3_Maker 3.0
# Normalized: r19:DSETVAR1,TDELIM( - ),TSWAP
#
DISCID=57116c19
DTITLE=Various Artist - The Best Country In Towu Disk Two
DYEAR=1900
DGENRE=
TTITLE0=Don Gibson - I Can't Stop Loving You
TTITLE1=Sandy Folar - Greensleeves
TTITLE2=Perry Como - For The Good Times
TTITLE3=The Everly Brothers - Devoted To You
TTITLE4=Peter Paul and Mary - Leaving On A Jet Plance
TTITLE5=The Brothers Four - Blow In The Wind
TTITLE6=Richard - Operator
TTITLE7=Sammi Smith - Help Me Make It Through The Night
TTITLE8=Glen Campbeel - Amazing Grace
TTITLE9=Johnny Horton - Whispering Pines
TTITLE10=Eddy Arnold - Then You Can Tell Me Goodbye
TTITLE11=Glen Campbell - By The Time I Get To Phoenix
TTITLE12=Peter Paul and Mary - Gone The Rainbow
TTITLE13=Joan Baez - House Of The Rising Sun
TTITLE14=Johnny Horton - The Battle Of New Orleans
TTITLE15=Charley Pride - Kiss An Angel Good Morning
TTITLE16=Marty Robin - The Hanging Tree
TTITLE17=Ringston - Where Have All The Flower Gone
TTITLE18=Glen Campbell - Yesterday WHen I Was Young
TTITLE19=Connway Twitty - Hello Darlin
TTITLE20=The Brothers Four - Yellow Bird
TTITLE21=Jose Feliciano - Rain
TTITLE22=Glen Campbell - All Have To Do is Dream
TTITLE23=Johnny Horton - The Mansion You Stole
TTITLE24=FranKie Laine - Rose Rose I Love You
EXTD=
EXTT0=
EXTT1=
EXTT2=
EXTT3=
EXTT4=
EXTT5=
EXTT6=
EXTT7=
EXTT8=
EXTT9=
EXTT10=
EXTT11=
EXTT12=
EXTT13=
EXTT14=
EXTT15=
EXTT16=
EXTT17=
EXTT18=
EXTT19=
EXTT20=
EXTT21=
EXTT22=
EXTT23=
EXTT24=
PLAYORDER=
